<svg xmlns="http://www.w3.org/2000/svg" version="1.1" xmlns:xlink="http://www.w3.org/1999/xlink" xmlns:svgjs="http://svgjs.com/svgjs" width="512" height="512" x="0" y="0" viewBox="0 0 512 512" style="enable-background:new 0 0 512 512" xml:space="preserve"><g><g fill="rgb(0,0,0)"><path d="m27.917 139.849c0 68.172 55.461 123.633 123.633 123.633s123.633-55.461 123.633-123.633-55.461-123.633-123.633-123.633-123.633 55.461-123.633 123.633zm123.633-107.681c59.375 0 107.68 48.305 107.68 107.68s-48.305 107.68-107.68 107.68-107.68-48.304-107.68-107.679 48.305-107.681 107.68-107.681z" fill="#000000" data-original="#000000"></path><path d="m131.609 203.659h11.964v11.964c0 4.405 3.571 7.976 7.976 7.976s7.976-3.571 7.976-7.976v-11.964h11.964c13.195 0 23.929-10.735 23.929-23.929v-19.941c0-15.394-12.524-27.917-27.917-27.917h-31.905c-6.597 0-11.964-5.367-11.964-11.964v-19.941c0-4.398 3.578-7.976 7.976-7.976h39.882c4.398 0 7.976 3.579 7.976 7.976v7.976c0 4.405 3.571 7.976 7.976 7.976s7.976-3.571 7.976-7.976v-7.976c0-13.194-10.734-23.929-23.929-23.929h-11.964v-11.964c0-4.405-3.571-7.976-7.976-7.976s-7.976 3.571-7.976 7.976v11.964h-11.964c-13.195 0-23.929 10.735-23.929 23.929v19.941c0 15.394 12.524 27.917 27.917 27.917h31.905c6.597 0 11.964 5.367 11.964 11.964v19.941c0 4.398-3.578 7.976-7.976 7.976h-39.882c-4.398 0-7.976-3.579-7.976-7.976v-7.976c0-4.405-3.571-7.976-7.976-7.976s-7.976 3.571-7.976 7.976v7.976c0 13.194 10.735 23.929 23.929 23.929z" fill="#000000" data-original="#000000"></path><path d="m481.502 9.774c-4.813-6.895-10.059-4.882-20.612-.839-7.132 2.733-14.265 5.465-21.397 8.198-13.656 5.232-27.311 10.464-40.967 15.696-1.298.497-2.596.995-3.895 1.492-4.113 1.577-6.171 6.189-4.595 10.302 1.576 4.115 6.189 6.171 10.302 4.596l60.973-23.361c-18.19 46.575-58.805 114.783-123.219 175.226-90.052 84.498-204.319 131.936-330.447 137.182-4.402.184-7.821 3.9-7.638 8.301.179 4.289 3.712 7.645 7.964 7.645.112 0 .224-.002.337-.007 70.613-2.938 137.39-18.421 198.476-46.02 51.804-23.405 99.654-55.525 142.224-95.47 64.696-60.706 106.232-129.379 125.794-177.642l21.771 56.823c1.216 3.176 4.241 5.125 7.45 5.125.949 0 1.913-.17 2.852-.53 4.113-1.577 6.171-6.189 4.595-10.302-4.454-11.625-8.907-23.249-13.361-34.874-4.276-11.162-8.376-23.807-13.281-35.257-1.126-2.625-2.215-4.692-3.326-6.284z" fill="#000000" data-original="#000000"></path><path d="m482.567 171.754h-63.811c-13.195 0-23.929 10.735-23.929 23.929v295.124h-19.941v-179.468c0-13.194-10.734-23.929-23.929-23.929h-63.811c-13.195 0-23.929 10.735-23.929 23.929v179.467h-19.941v-119.644c0-13.194-10.734-23.929-23.929-23.929h-63.811c-13.195 0-23.929 10.735-23.929 23.929v119.645h-19.941v-95.716c0-13.194-10.734-23.929-23.929-23.929h-63.808c-13.195 0-23.929 10.735-23.929 23.929v103.692c0 4.405 3.571 7.976 7.976 7.976h490.544c4.405 0 7.976-3.571 7.976-7.976v-303.1c0-13.194-10.734-23.929-23.929-23.929zm-71.786 23.929c0-4.398 3.578-7.976 7.976-7.976h63.811c4.398 0 7.976 3.579 7.976 7.976v295.124h-79.763zm-131.61 115.656c0-4.398 3.578-7.976 7.976-7.976h63.811c4.398 0 7.976 3.579 7.976 7.976v179.467h-79.763zm-131.609 59.823c0-4.398 3.578-7.976 7.976-7.976h63.811c4.398 0 7.976 3.579 7.976 7.976v119.645h-79.763zm-123.633 15.953h63.811c4.398 0 7.976 3.579 7.976 7.976v95.716h-79.763v-95.716c0-4.398 3.578-7.976 7.976-7.976z" fill="#000000" data-original="#000000"></path></g></g></svg>